# xmcd CD database file
#
# Track frame offsets:
#	150
#	21412
#	41575
#	57695
#	71062
#	85910
#	99707
#	115657
#	131700
#	147215
#	159032
#	177260
#
# Disc length: 2588 seconds
#
# Revision: 0
# Processed by: cddbd v1.5.1PL0 Copyright (c) Steve Scherf et al.
# Submitted via: CDex 1.51
#
DISCID=a70a1a0c
DTITLE=KALAPANA - ワイキキの熱いベストLIVE
DYEAR=1900
DGENRE=Pop
TTITLE0=KALAPANA-BLACK SAND
TTITLE1=KALAPANA-NATURALY
TTITLE2=KALAPANA-THE HART
TTITLE3=KALAPANA-(FOR YOU) I'D CHASE A RAINBOW
TTITLE4=KALAPANA-JULIETTE
TTITLE5=KALAPANA-HERE,THERE AND EVERYWHERE
TTITLE6=KALAPANA-MOLOKAI
TTITLE7=KALAPANA-MONN and STARTS
TTITLE8=KALAPANA-YOU MAKE IT HARD
TTITLE9=KALAPANA-NIGHTBIRD
TTITLE10=KALAPANA-GOING GOING GONE
TTITLE11=KALAPANA-MANY CLASSIC MOMENTS
EXTD=
EXTT0=
EXTT1=
EXTT2=
EXTT3=
EXTT4=
EXTT5=
EXTT6=
EXTT7=
EXTT8=
EXTT9=
EXTT10=
EXTT11=
PLAYORDER=
